<svg width="43" height="40" viewBox="0 0 43 40" fill="none" xmlns="http://www.w3.org/2000/svg">
<path d="M36.8426 -3.38074e-07C39.8161 -1.51361e-07 42.2265 2.41048 42.2265 5.38396V5.38396C42.2265 16.6657 33.0809 25.8113 21.7992 25.8113L10.3209 25.8113L10.3209 2.86792C10.3209 1.28401 11.6049 -1.92282e-06 13.1888 -1.82336e-06L36.8426 -3.38074e-07Z" fill="#E99003"/>
<path d="M10.321 8.60377C10.321 7.01985 11.605 5.73584 13.1889 5.73584V5.73584C14.7728 5.73584 16.0569 7.01985 16.0569 8.60376V36.2075C16.0569 37.7914 14.7728 39.0755 13.1889 39.0755V39.0755C11.605 39.0755 10.321 37.7914 10.321 36.2075V8.60377Z" fill="black"/>
<path d="M11.5938 20.0644C9.00995 21.1027 3.55095 19.5729 1.14444 18.6781C3.09996 21.6893 9.17507 24.8249 11.9682 26.0163C12.92 23.5997 14.1777 19.026 11.5938 20.0644Z" fill="black" stroke="black" stroke-width="0.358491"/>
<circle cx="39.1795" cy="3.40581" r="3.04717" fill="black"/>
</svg>
