<svg width="469" height="141" viewBox="0 0 469 141" fill="none" xmlns="http://www.w3.org/2000/svg">
<path d="M17.3452 81.4571V70.2667H36.9286C39.6143 70.2667 41.9643 69.7444 43.9786 68.7C46.0675 67.5809 47.7087 66.0516 48.9024 64.1119C50.096 62.0976 50.6929 59.7476 50.6929 57.0619C50.6929 54.3762 50.096 52.0635 48.9024 50.1238C47.7087 48.1095 46.0675 46.5801 43.9786 45.5357C41.9643 44.4167 39.6143 43.8571 36.9286 43.8571H17.3452V32.6667H37.6C42.5238 32.6667 46.9254 33.6738 50.8048 35.6881C54.7587 37.7024 57.8548 40.5373 60.0929 44.1929C62.4056 47.8484 63.5619 52.1381 63.5619 57.0619C63.5619 61.9857 62.4056 66.2754 60.0929 69.9309C57.8548 73.5865 54.7587 76.4214 50.8048 78.4357C46.9254 80.45 42.5238 81.4571 37.6 81.4571H17.3452ZM8.50476 111V32.6667H21.3738V111H8.50476ZM96.6945 112.119C91.323 112.119 86.4738 110.925 82.1468 108.538C77.8945 106.076 74.5 102.719 71.9635 98.4667C69.5016 94.2143 68.2706 89.4397 68.2706 84.1429C68.2706 78.846 69.5016 74.1087 71.9635 69.9309C74.4254 65.6786 77.7453 62.3214 81.923 59.8595C86.1754 57.3976 90.8754 56.1667 96.023 56.1667C101.021 56.1667 105.423 57.323 109.228 59.6357C113.107 61.9484 116.129 65.119 118.292 69.1476C120.53 73.1762 121.649 77.7643 121.649 82.9119C121.649 83.8071 121.575 84.7397 121.425 85.7095C121.351 86.6048 121.202 87.6119 120.978 88.7309H76.8873V78.6595H114.599L110.011 82.6881C109.862 79.4056 109.228 76.6452 108.109 74.4071C106.99 72.169 105.386 70.4532 103.297 69.2595C101.283 68.0659 98.7834 67.469 95.7992 67.469C92.6659 67.469 89.9429 68.1405 87.6302 69.4833C85.3175 70.8262 83.527 72.7286 82.2587 75.1905C80.9905 77.5778 80.3564 80.45 80.3564 83.8071C80.3564 87.1643 81.0278 90.1111 82.3707 92.6476C83.7135 95.1841 85.6159 97.1611 88.0778 98.5786C90.5397 99.9214 93.3746 100.593 96.5826 100.593C99.3429 100.593 101.879 100.108 104.192 99.1381C106.579 98.1683 108.594 96.7508 110.235 94.8857L118.068 102.831C115.457 105.89 112.287 108.202 108.556 109.769C104.826 111.336 100.872 112.119 96.6945 112.119ZM138.265 111V34.9048H150.575V111H138.265ZM125.396 68.4762V57.2857H163.444V68.4762H125.396ZM172.388 111V57.2857H184.698V111H172.388ZM184.698 81.1214L180.446 78.9952C180.446 72.2063 181.938 66.723 184.922 62.5452C187.98 58.2929 192.569 56.1667 198.686 56.1667C201.372 56.1667 203.796 56.6516 205.96 57.6214C208.123 58.5913 210.138 60.1579 212.003 62.3214L203.946 70.6024C202.976 69.5579 201.894 68.8119 200.7 68.3643C199.507 67.9167 198.127 67.6929 196.56 67.6929C193.128 67.6929 190.293 68.7746 188.055 70.9381C185.817 73.1016 184.698 76.496 184.698 81.1214ZM238.813 112.119C233.963 112.119 229.562 110.888 225.608 108.426C221.729 105.964 218.632 102.644 216.32 98.4667C214.082 94.2143 212.963 89.477 212.963 84.2548C212.963 78.9579 214.082 74.2206 216.32 70.0429C218.632 65.7905 221.729 62.4333 225.608 59.9714C229.562 57.4349 233.963 56.1667 238.813 56.1667C242.916 56.1667 246.534 57.0619 249.667 58.8524C252.875 60.5682 255.412 62.9556 257.277 66.0143C259.142 69.073 260.075 72.5421 260.075 76.4214V91.8643C260.075 95.7436 259.142 99.2127 257.277 102.271C255.486 105.33 252.987 107.755 249.779 109.545C246.571 111.261 242.916 112.119 238.813 112.119ZM240.827 100.481C245.378 100.481 249.033 98.9516 251.794 95.8929C254.629 92.8341 256.046 88.9175 256.046 84.1429C256.046 80.9349 255.412 78.1 254.144 75.6381C252.875 73.1762 251.085 71.2738 248.772 69.9309C246.534 68.5135 243.886 67.8048 240.827 67.8048C237.843 67.8048 235.194 68.5135 232.882 69.9309C230.644 71.2738 228.853 73.1762 227.51 75.6381C226.242 78.1 225.608 80.9349 225.608 84.1429C225.608 87.3508 226.242 90.1857 227.51 92.6476C228.853 95.1095 230.644 97.0492 232.882 98.4667C235.194 99.8095 237.843 100.481 240.827 100.481ZM255.263 111V96.5643L257.389 83.4714L255.263 70.4905V57.2857H267.572V111H255.263ZM305.964 112.119C300.667 112.119 295.856 110.888 291.529 108.426C287.276 105.964 283.919 102.607 281.457 98.3548C278.995 94.1024 277.764 89.3651 277.764 84.1429C277.764 78.846 278.995 74.1087 281.457 69.9309C283.919 65.6786 287.276 62.3214 291.529 59.8595C295.856 57.3976 300.667 56.1667 305.964 56.1667C310.142 56.1667 314.021 56.9873 317.602 58.6286C321.258 60.1952 324.354 62.4706 326.89 65.4548L318.833 73.6238C317.267 71.7587 315.364 70.3786 313.126 69.4833C310.963 68.5135 308.575 68.0286 305.964 68.0286C302.906 68.0286 300.183 68.7373 297.795 70.1548C295.483 71.4976 293.655 73.3627 292.312 75.75C291.044 78.1373 290.409 80.9349 290.409 84.1429C290.409 87.2762 291.044 90.0738 292.312 92.5357C293.655 94.923 295.483 96.8254 297.795 98.2429C300.183 99.5857 302.906 100.257 305.964 100.257C308.575 100.257 310.963 99.8095 313.126 98.9143C315.364 97.9444 317.267 96.527 318.833 94.6619L326.89 102.831C324.354 105.815 321.258 108.128 317.602 109.769C314.021 111.336 310.142 112.119 305.964 112.119ZM369.896 111L347.179 83.5833L369.784 57.2857H384.444L358.482 86.8286L359.041 79.7786L385.563 111H369.896ZM335.765 111V30.4286H348.075V111H335.765Z" fill="black"/>
<path d="M457.796 57.4443C463.983 57.4443 469 62.4606 469 68.6485V68.6485C469 92.1262 449.967 111.159 426.49 111.159L403.369 111.159L403.369 63.4126C403.369 60.1164 406.041 57.4443 409.338 57.4443L457.796 57.4443Z" fill="#E99003"/>
<path d="M403.369 75.2802C403.369 72.0221 406.01 69.3809 409.269 69.3809V69.3809C412.527 69.3809 415.168 72.0221 415.168 75.2802V132.862C415.168 136.121 412.527 138.762 409.269 138.762V138.762C406.01 138.762 403.369 136.121 403.369 132.862V75.2802Z" fill="black"/>
<path d="M405.988 99.1994C400.672 101.36 389.443 98.1766 384.493 96.3146C388.515 102.581 401.012 109.106 406.758 111.586C408.715 106.556 411.303 97.0386 405.988 99.1994Z" fill="black" stroke="black" stroke-width="0.746032"/>
<ellipse cx="462.732" cy="64.5317" rx="6.26808" ry="6.34127" fill="black"/>
</svg>
